<svg xmlns="http://www.w3.org/2000/svg" viewBox="0 0 156.64 112.7"><defs><style>.cls-1{fill:none;stroke:#f4f4f4;stroke-miterlimit:10;}.cls-2{fill:#f4f4f4;}</style></defs><title>Asset 2</title><g id="Layer_2" data-name="Layer 2"><g id="Layer_1-2" data-name="Layer 1"><g id="Layer_4" data-name="Layer 4"><polyline class="cls-1" points="104.9 34.8 155.1 34.8 155.1 96.7"/><polyline class="cls-1" points="97.4 42.3 147.7 42.3 147.7 104.1"/><polyline class="cls-1" points="90.3 50.9 140.5 50.9 140.5 112.7"/><line class="cls-1" x1="90.3" y1="83.8" x2="132.9" y2="83.8"/><line class="cls-1" x1="86" y1="60" x2="86" y2="112.7"/><polyline class="cls-1" points="15.2 111.6 65.4 111.6 65.4 49.8"/><polyline class="cls-1" points="8.1 104.5 58.3 104.5 58.3 42.7"/><polyline class="cls-1" points="50.7 34.8 50.7 96.6 0.5 96.6 0.5 34.8"/></g><path class="cls-2" d="M72.6,5.2a8.36,8.36,0,0,1,3,.4,3,3,0,0,1,1.6,1.2A3.17,3.17,0,0,1,77.3,9a3.36,3.36,0,0,1-.7,1.7,4,4,0,0,1-1.5,1,13.06,13.06,0,0,1-2.5.4l-6.4.6.1-1.2,6.3-.6a5.69,5.69,0,0,0,1.6-.3,2.07,2.07,0,0,0,1-.6,3.34,3.34,0,0,0,.5-1.2,2.71,2.71,0,0,0-.1-1.6c-.2-.4-.6-.5-1.1-.6a10.32,10.32,0,0,0-1.9-.1,12.48,12.48,0,0,0-2.1.2,2.35,2.35,0,0,0-1.4.7,3.88,3.88,0,0,0-1,1.4c-.2.6-.4,1.4-.7,2.5a12,12,0,0,0-.1,3.2A2.08,2.08,0,0,0,68.5,16a5.67,5.67,0,0,0,2.5.4,9.15,9.15,0,0,0,1.6-.1c.6,0,1.1-.1,1.7-.1a7.57,7.57,0,0,1,1.5-.1l.1,1a5.69,5.69,0,0,1-1.6.3,11.08,11.08,0,0,0-1.9.2,10.9,10.9,0,0,1-1.7.1,6.39,6.39,0,0,1-3.4-.7,3.75,3.75,0,0,1-1.6-2.1,11.37,11.37,0,0,1,0-3.7,10.83,10.83,0,0,1,.8-3,7,7,0,0,1,1.3-1.9,4.21,4.21,0,0,1,2-1A23.52,23.52,0,0,1,72.6,5.2Z"/><path class="cls-2" d="M82.1,5.4l3.4,5.9-5.3,6.1H78.3l5.5-6.3L80.4,5.3h1.7Zm4.5,5.2-.2,1.2H84.1l.2-1.2Zm5.5-5.2L87,11.2l3.6,6.2H88.9l-3.7-6.3,5-5.6A12.1,12.1,0,0,1,92.1,5.4Z"/><path class="cls-2" d="M96.7,5.4l-.3,3,.1.1-1.3,8.4-.2.4c0,.4-.1.8-.1,1.2s-.1.8-.1,1.2l-.4,2.9H92.7L95.4,5.4Zm5.8-.2a4,4,0,0,1,2.4.6,3,3,0,0,1,1,2,16.76,16.76,0,0,1-.1,3.8,16.47,16.47,0,0,1-.8,3.2,4.31,4.31,0,0,1-1.3,1.9,3.38,3.38,0,0,1-1.9.9,17,17,0,0,1-2.6.3,6.15,6.15,0,0,1-1.3-.1c-.4,0-1-.1-1.4-.1s-1-.1-1.4-.1-.9-.1-1.3-.2l.4-1c1,0,1.9.1,2.6.1s1.3.1,1.9.1a14.36,14.36,0,0,0,2.4-.2,2.63,2.63,0,0,0,1.5-.7,3.18,3.18,0,0,0,.9-1.5,20.74,20.74,0,0,0,.6-2.6,11.19,11.19,0,0,0,.2-3,2.07,2.07,0,0,0-.5-1.5,2.2,2.2,0,0,0-1.6-.4,5.35,5.35,0,0,0-1.8.4,16.37,16.37,0,0,0-2.2,1.2,10.1,10.1,0,0,0-2.3,1.9l-.3-.9a6.73,6.73,0,0,1,1.5-1.4,9.39,9.39,0,0,1,1.8-1.2,16.32,16.32,0,0,1,1.9-.9A1.92,1.92,0,0,1,102.5,5.2Z"/><path class="cls-2" d="M113.2.1,111,14.5a1.72,1.72,0,0,0,.2,1.3,1.7,1.7,0,0,0,1.3.4h1.4l.1,1.2c-.1.1-.4.1-.6.1a2.2,2.2,0,0,1-.8.1h-.7a3.11,3.11,0,0,1-2.2-.8,2.05,2.05,0,0,1-.5-2.2L111.4,0l1.8.1Z"/><path class="cls-2" d="M123.4,5.2a5.7,5.7,0,0,1,1.3.1c.4,0,1,.1,1.4.1s1,.1,1.4.1,1,.1,1.4.2l-.7,1c-1,0-1.9-.1-2.6-.1s-1.3-.1-1.9-.1a14.36,14.36,0,0,0-2.4.2,2.63,2.63,0,0,0-1.5.7,2.75,2.75,0,0,0-.9,1.5,26.09,26.09,0,0,0-.6,2.6,11.19,11.19,0,0,0-.2,3,2.07,2.07,0,0,0,.5,1.5,2.2,2.2,0,0,0,1.6.4,4.33,4.33,0,0,0,1.9-.4,9.24,9.24,0,0,0,2.1-1.2,18.62,18.62,0,0,0,2.2-1.9l.3.9a9,9,0,0,1-1.9,2,11.57,11.57,0,0,1-2.4,1.4,5.59,5.59,0,0,1-2.5.5,4,4,0,0,1-2.4-.6,3,3,0,0,1-1-2.1,12.22,12.22,0,0,1,.2-3.7,18.6,18.6,0,0,1,.8-3.2,4.31,4.31,0,0,1,1.3-1.9,3.38,3.38,0,0,1,1.9-.9A22.62,22.62,0,0,1,123.4,5.2Zm4,.4h1.7l-1.8,11.8H126l.3-2.9-.2-.2Z"/><path class="cls-2" d="M135.3,5.4l-1.8,12h-1.6l1.8-12Zm.3-5a1,1,0,0,1,.4.1.6.6,0,0,1,.1.4l-.2,1.4c-.1.3-.2.5-.6.5h-.7c-.4,0-.6-.2-.5-.5l.2-1.4c.1-.3.2-.5.6-.5Z"/><path class="cls-2" d="M141.2,5.4l-.3,3.1.1.4-1.3,8.5H138l1.9-12Zm6.2-.2a5.82,5.82,0,0,1,1.9.3,2.13,2.13,0,0,1,1,1.1,3,3,0,0,1,.1,1.9l-1.4,9h-1.7l1.3-8.7a3.19,3.19,0,0,0-.2-1.8c-.2-.4-.8-.5-1.6-.5a6.3,6.3,0,0,0-2.8.8,21.14,21.14,0,0,0-3.4,2.2V8.3A18.92,18.92,0,0,1,144.1,6,7.53,7.53,0,0,1,147.4,5.2Z"/><path class="cls-2" d="M155.4,13.7a1.49,1.49,0,0,1,1,.3,1,1,0,0,1,.2,1l-.1,1.2a1.88,1.88,0,0,1-.4.9,1.61,1.61,0,0,1-1.1.3h-.9c-1,0-1.5-.5-1.3-1.4l.1-1.2c.1-.8.7-1.2,1.6-1.2l.9.1Z"/></g></g></svg>