<svg xmlns="http://www.w3.org/2000/svg" viewBox="0 0 156.64 112.7"><defs><style>.cls-1{fill:none;stroke:#374444;stroke-miterlimit:10;}.cls-2{fill:#374444;}</style></defs><title>Asset 1</title><g id="Layer_2" data-name="Layer 2"><g id="Layer_1-2" data-name="Layer 1"><g id="Layer_4" data-name="Layer 4"><polyline class="cls-1" points="104.9 34.8 155.1 34.8 155.1 96.6"/><polyline class="cls-1" points="97.4 42.3 147.6 42.3 147.6 104.1"/><polyline class="cls-1" points="90.2 50.8 140.5 50.8 140.5 112.7"/><line class="cls-1" x1="90.2" y1="83.7" x2="132.8" y2="83.7"/><line class="cls-1" x1="86" y1="59.9" x2="86" y2="112.7"/><polyline class="cls-1" points="15.2 111.6 65.4 111.6 65.4 49.8"/><polyline class="cls-1" points="8 104.4 58.2 104.4 58.2 42.6"/><polyline class="cls-1" points="50.6 34.7 50.6 96.5 0.5 96.5 0.5 34.7"/></g><path class="cls-2" d="M72.6,5.1a8.36,8.36,0,0,1,3,.4,3,3,0,0,1,1.6,1.2,3.17,3.17,0,0,1,.1,2.2,3.36,3.36,0,0,1-.7,1.7,3.31,3.31,0,0,1-1.5,1,13.06,13.06,0,0,1-2.5.4l-6.4.6.1-1.2,6.3-.6a5.69,5.69,0,0,0,1.6-.3,2.07,2.07,0,0,0,1-.6,2.2,2.2,0,0,0,.5-1.2,2.71,2.71,0,0,0-.1-1.6c-.2-.4-.6-.5-1.1-.6a10.32,10.32,0,0,0-1.9-.1,12.48,12.48,0,0,0-2.1.2,2.35,2.35,0,0,0-1.4.7,3.88,3.88,0,0,0-1,1.4,16.37,16.37,0,0,0-.7,2.5,12,12,0,0,0-.1,3.2,2.08,2.08,0,0,0,1.2,1.5,5.67,5.67,0,0,0,2.5.4,9.15,9.15,0,0,0,1.6-.1c.6,0,1.1-.1,1.7-.1a7.57,7.57,0,0,1,1.5-.1l.1,1a5.69,5.69,0,0,1-1.6.3,11.08,11.08,0,0,0-1.9.2,11.56,11.56,0,0,1-1.7.1,6.39,6.39,0,0,1-3.4-.7,3.75,3.75,0,0,1-1.6-2.1,11.37,11.37,0,0,1,0-3.7,10.83,10.83,0,0,1,.8-3,7,7,0,0,1,1.3-1.9,4.21,4.21,0,0,1,2-1C70.6,5.2,71.5,5.1,72.6,5.1Z"/><path class="cls-2" d="M82,5.4l3.4,5.9-5.3,6.1H78.2l5.5-6.3L80.3,5.3H82Zm4.5,5.1-.2,1.2H84l.2-1.2ZM92,5.4l-5.1,5.8,3.6,6.2H88.8l-3.7-6.3,5-5.6A12.75,12.75,0,0,1,92,5.4Z"/><path class="cls-2" d="M96.7,5.4l-.3,3,.1.1-1.3,8.4-.2.4c0,.4-.1.8-.1,1.2s-.1.8-.1,1.2l-.5,2.8H92.6L95.3,5.3A6.6,6.6,0,0,0,96.7,5.4Zm5.8-.3a4,4,0,0,1,2.4.6,3,3,0,0,1,1,2,16.76,16.76,0,0,1-.1,3.8,16.47,16.47,0,0,1-.8,3.2,4.31,4.31,0,0,1-1.3,1.9,3.38,3.38,0,0,1-1.9.9,17,17,0,0,1-2.6.3,6.15,6.15,0,0,1-1.3-.1c-.4,0-1-.1-1.4-.1a6.6,6.6,0,0,0-1.4-.1c-.4-.1-.9-.1-1.3-.2l.4-1c1,0,1.9.1,2.6.1s1.3.1,1.9.1a14.36,14.36,0,0,0,2.4-.2,2.63,2.63,0,0,0,1.5-.7,3.77,3.77,0,0,0,.9-1.5,20.74,20.74,0,0,0,.6-2.6,11.19,11.19,0,0,0,.2-3,2.07,2.07,0,0,0-.5-1.5,2.2,2.2,0,0,0-1.6-.4,5.35,5.35,0,0,0-1.8.4,16.37,16.37,0,0,0-2.2,1.2,10.1,10.1,0,0,0-2.3,1.9l-.3-.9a6.73,6.73,0,0,1,1.5-1.4,9.39,9.39,0,0,1,1.8-1.2,16.32,16.32,0,0,1,1.9-.9A2.11,2.11,0,0,1,102.5,5.1Z"/><path class="cls-2" d="M113.1.1l-2.2,14.4a1.72,1.72,0,0,0,.2,1.3,1.7,1.7,0,0,0,1.3.4h1.4l.1,1.2c-.1.1-.4.1-.6.1a2.2,2.2,0,0,1-.8.1h-.7a3.11,3.11,0,0,1-2.2-.8,2.05,2.05,0,0,1-.5-2.2L111.3,0l1.8.1Z"/><path class="cls-2" d="M123.4,5.1a5.7,5.7,0,0,1,1.3.1c.4,0,1,.1,1.4.1a6.6,6.6,0,0,0,1.4.1c.4.1,1,.1,1.4.2l-.7,1c-1,0-1.9-.1-2.6-.1s-1.3-.1-1.9-.1a14.36,14.36,0,0,0-2.4.2,2.63,2.63,0,0,0-1.5.7,3.18,3.18,0,0,0-.9,1.5,26.09,26.09,0,0,0-.6,2.6,11.19,11.19,0,0,0-.2,3,2.07,2.07,0,0,0,.5,1.5,2.2,2.2,0,0,0,1.6.4,4.33,4.33,0,0,0,1.9-.4,7.52,7.52,0,0,0,2.1-1.2,12.42,12.42,0,0,0,2.2-1.9l.3.9a9,9,0,0,1-1.9,2,11.57,11.57,0,0,1-2.4,1.4,7.42,7.42,0,0,1-2.5.5,4,4,0,0,1-2.4-.6,3,3,0,0,1-1-2.1,12.22,12.22,0,0,1,.2-3.7,18.6,18.6,0,0,1,.8-3.2,4.31,4.31,0,0,1,1.3-1.9,3.75,3.75,0,0,1,1.9-.9C121.5,5.2,122.4,5.1,123.4,5.1Zm4,.5h1.7l-1.8,11.8H126l.3-2.9-.2-.2Z"/><path class="cls-2" d="M135.3,5.4l-1.8,12h-1.6l1.8-12Zm.3-5.1a1,1,0,0,1,.4.1.6.6,0,0,1,.1.4l-.2,1.4c-.1.3-.2.5-.6.5h-.7c-.4,0-.6-.2-.5-.5l.2-1.4c.1-.3.2-.5.6-.5Z"/><path class="cls-2" d="M141.1,5.4l-.3,3.1.1.4-1.3,8.5h-1.7l1.9-12Zm6.3-.3a5.82,5.82,0,0,1,1.9.3,2.13,2.13,0,0,1,1,1.1,3,3,0,0,1,.1,1.9l-1.4,9h-1.7l1.3-8.7a3.19,3.19,0,0,0-.2-1.8,2,2,0,0,0-1.6-.5,6.3,6.3,0,0,0-2.8.8,21.14,21.14,0,0,0-3.4,2.2V8.2a18.92,18.92,0,0,1,3.5-2.3A8.8,8.8,0,0,1,147.4,5.1Z"/><path class="cls-2" d="M155.4,13.6a1.49,1.49,0,0,1,1,.3,1,1,0,0,1,.2,1l-.1,1.2a1.88,1.88,0,0,1-.4.9,1.61,1.61,0,0,1-1.1.3h-.9c-1,0-1.5-.5-1.3-1.4l.1-1.2c.1-.8.7-1.2,1.6-1.2l.9.1Z"/></g></g></svg>